<svg xmlns="http://www.w3.org/2000/svg" viewBox="0 0 1000.1 245.37"><defs><style>.cls-1{fill:#fff;}</style></defs><title>logo-gadm</title><g id="Layer_2"><g id="Capa_1"><path d="M226.45 197.48a128.32 128.32 0 0 1-21.88 21.43 130.57 130.57 0 0 1-24.68 14.94 122.82 122.82 0 0 1-26.32 8.72 130.8 130.8 0 0 1-26.75 2.8 128.83 128.83 0 0 1-49.37-9.45 126.1 126.1 0 0 1-40.2-26 124 124 0 0 1-27.2-39A117.3 117.3 0 0 1 0 122.4a116.35 116.35 0 0 1 9.9-47.75 121.43 121.43 0 0 1 27.2-38.88A130.15 130.15 0 0 1 77.45 9.6 127.1 127.1 0 0 1 126.82 0q30.45 0 55.43 12.42a131.2 131.2 0 0 1 42.42 33.1l-31 31.64q-13.28-18-29.8-25.87T127 43.45a80.6 80.6 0 0 0-31.58 6.2 82.4 82.4 0 0 0-25.83 17A80 80 0 0 0 52.15 91.8a77.7 77.7 0 0 0 0 61.48 81.34 81.34 0 0 0 43.22 42.42 80.5 80.5 0 0 0 31.56 6.2A77.23 77.23 0 0 0 157 196a92.8 92.8 0 0 0 25.37-15.67v-22.76h-48.45v-39h92.53zM729.9 122.7a126.54 126.54 0 0 1-8.28 46 117.6 117.6 0 0 1-23.06 37.53 107.36 107.36 0 0 1-80.12 34.74H519.7V4.43h98.75a105.82 105.82 0 0 1 44.8 9.46 110.72 110.72 0 0 1 35.32 25.4 115.56 115.56 0 0 1 23.06 37.55 126.94 126.94 0 0 1 8.27 45.84zm-46.4-1.2a87.2 87.2 0 0 0-5-31.33 76.84 76.84 0 0 0-15.4-25.87 71.06 71.06 0 0 0-24.7-17.44q-14.63-6.35-33-6.36h-39.87v161.4h39.9q18 0 32.38-6.05A70.16 70.16 0 0 0 662.2 179a75.83 75.83 0 0 0 15.52-25.42 95.7 95.7 0 0 0 5.77-32.08zM1000.1 240.94h-44.93V83.07l-72.43 125.17L810.3 81.9v159h-44.93V4.42h51.73l65.64 117.37 67.4-117.37h50zM363 79.7l36 62 35.7 61.45H291.28L327 141.68l36-62m0-75.27l-68.72 118.3-68.7 118.24H500.4L431.7 122.7 363 4.42zM882.9 4.43H933l-25.07 43.42-25.06 43.42-25.08-43.42-23.66-43.42h48.73z" class="cls-1"/></g></g></svg>